# XSI Wavefront OBJ Export v3.0
# File Created: Mon Dec 12 19:46:01 2005
# XSI Version: 5.0.2005.1013-1
o 5.0.2005.1013-1
mtllib mapped_cube.mtl


# Hierarchy (from self to top father)
g cube

#begin 8 vertices
v -4.000000 -4.000000 -4.000000
v 4.000000 -4.000000 -4.000000
v -4.000000 4.000000 -4.000000
v 4.000000 4.000000 -4.000000
v -4.000000 -4.000000 4.000000
v 4.000000 -4.000000 4.000000
v -4.000000 4.000000 4.000000
v 4.000000 4.000000 4.000000
#end 8 vertices

#begin 24 normals
vn 0.000000 0.000000 -1.000000
vn 0.000000 0.000000 -1.000000
vn 0.000000 0.000000 -1.000000
vn 0.000000 0.000000 -1.000000
vn 0.000000 -1.000000 0.000000
vn 0.000000 -1.000000 0.000000
vn 0.000000 -1.000000 0.000000
vn 0.000000 -1.000000 0.000000
vn -1.000000 0.000000 0.000000
vn -1.000000 0.000000 0.000000
vn -1.000000 0.000000 0.000000
vn -1.000000 0.000000 0.000000
vn 1.000000 0.000000 0.000000
vn 1.000000 0.000000 0.000000
vn 1.000000 0.000000 0.000000
vn 1.000000 0.000000 0.000000
vn 0.000000 1.000000 0.000000
vn 0.000000 1.000000 0.000000
vn 0.000000 1.000000 0.000000
vn 0.000000 1.000000 0.000000
vn 0.000000 0.000000 1.000000
vn 0.000000 0.000000 1.000000
vn 0.000000 0.000000 1.000000
vn 0.000000 0.000000 1.000000
#end 24 vertex normals

#begin 24 texture vertices
vt 1.000000 0.000000 0.000000
vt 1.000000 1.000000 0.000000
vt 0.000000 1.000000 0.000000
vt 0.000000 0.000000 0.000000
vt 0.000000 0.000000 0.000000
vt 1.000000 0.000000 0.000000
vt 1.000000 1.000000 0.000000
vt 0.000000 1.000000 0.000000
vt 0.000000 0.000000 0.000000
vt 1.000000 0.000000 0.000000
vt 1.000000 1.000000 0.000000
vt 0.000000 1.000000 0.000000
vt 1.000000 0.000000 0.000000
vt 1.000000 1.000000 0.000000
vt 0.000000 1.000000 0.000000
vt 0.000000 0.000000 0.000000
vt 0.000000 1.000000 0.000000
vt 0.000000 0.000000 0.000000
vt 1.000000 0.000000 0.000000
vt 1.000000 1.000000 0.000000
vt 0.000000 0.000000 0.000000
vt 1.000000 0.000000 0.000000
vt 1.000000 1.000000 0.000000
vt 0.000000 1.000000 0.000000
#end 24 texture vertices

#begin 6 faces
usemtl material1
f 1/1/1 3/2/2 4/3/3 2/4/4 
usemtl material1
f 1/5/5 2/6/6 6/7/7 5/8/8 
usemtl material1
f 1/9/9 5/10/10 7/11/11 3/12/12 
usemtl material1
f 2/13/13 4/14/14 8/15/15 6/16/16 
usemtl material1
f 3/17/17 7/18/18 8/19/19 4/20/20 
usemtl material1
f 5/21/21 6/22/22 8/23/23 7/24/24 
#end 6 faces

# Hierarchy (from self to top father)
g Sphere

#begin 58 vertices
v 0.000000 -4.000000 0.000000
v 0.000000 4.000000 0.000000
v -1.530734 -3.695518 0.000000
v -2.828427 -2.828427 0.000000
v -3.695518 -1.530734 0.000000
v -4.000000 -0.000000 0.000000
v -3.695518 1.530734 0.000000
v -2.828427 2.828427 0.000000
v -1.530734 3.695518 0.000000
v -1.082392 -3.695518 1.082392
v -2.000000 -2.828427 2.000000
v -2.613126 -1.530734 2.613126
v -2.828427 -0.000000 2.828427
v -2.613126 1.530734 2.613126
v -2.000000 2.828427 2.000000
v -1.082392 3.695518 1.082392
v -0.000000 -3.695518 1.530734
v -0.000000 -2.828427 2.828427
v -0.000000 -1.530734 3.695518
v -0.000000 -0.000000 4.000000
v -0.000000 1.530734 3.695518
v -0.000000 2.828427 2.828427
v -0.000000 3.695518 1.530734
v 1.082392 -3.695518 1.082392
v 2.000000 -2.828427 2.000000
v 2.613126 -1.530734 2.613126
v 2.828427 -0.000000 2.828427
v 2.613126 1.530734 2.613126
v 2.000000 2.828427 2.000000
v 1.082392 3.695518 1.082392
v 1.530734 -3.695518 0.000000
v 2.828427 -2.828427 0.000000
v 3.695518 -1.530734 0.000000
v 4.000000 -0.000000 0.000000
v 3.695518 1.530734 0.000000
v 2.828427 2.828427 0.000000
v 1.530734 3.695518 0.000000
v 1.082392 -3.695518 -1.082392
v 2.000000 -2.828427 -2.000000
v 2.613126 -1.530734 -2.613126
v 2.828427 -0.000000 -2.828427
v 2.613126 1.530734 -2.613126
v 2.000000 2.828427 -2.000000
v 1.082392 3.695518 -1.082392
v 0.000000 -3.695518 -1.530734
v 0.000000 -2.828427 -2.828427
v 0.000000 -1.530734 -3.695518
v 0.000000 -0.000000 -4.000000
v 0.000000 1.530734 -3.695518
v 0.000000 2.828427 -2.828427
v 0.000000 3.695518 -1.530734
v -1.082392 -3.695518 -1.082392
v -2.000000 -2.828427 -2.000000
v -2.613126 -1.530734 -2.613126
v -2.828427 -0.000000 -2.828427
v -2.613126 1.530734 -2.613126
v -2.000000 2.828427 -2.000000
v -1.082392 3.695518 -1.082392
#end 58 vertices

#begin 240 normals
vn -0.269132 -0.924735 0.269132
vn -0.380611 -0.924735 0.000000
vn 0.000000 -1.000000 0.000000
vn -0.380611 -0.924735 0.000000
vn -0.269132 -0.924735 0.269132
vn -0.498494 -0.709230 0.498494
vn -0.704977 -0.709230 0.000000
vn -0.704977 -0.709230 0.000000
vn -0.498494 -0.709230 0.498494
vn -0.652733 -0.384551 0.652733
vn -0.923104 -0.384551 0.000000
vn -0.923104 -0.384551 0.000000
vn -0.652733 -0.384551 0.652733
vn -0.707107 0.000000 0.707107
vn -1.000000 0.000000 0.000000
vn -1.000000 0.000000 0.000000
vn -0.707107 0.000000 0.707107
vn -0.652733 0.384551 0.652733
vn -0.923104 0.384551 0.000000
vn -0.923104 0.384551 0.000000
vn -0.652733 0.384551 0.652733
vn -0.498494 0.709230 0.498494
vn -0.704977 0.709230 0.000000
vn -0.704977 0.709230 0.000000
vn -0.498494 0.709230 0.498494
vn -0.269132 0.924735 0.269132
vn -0.380611 0.924735 0.000000
vn -0.380611 0.924735 0.000000
vn -0.269132 0.924735 0.269132
vn 0.000000 1.000000 -0.000000
vn 0.000000 -0.924735 0.380611
vn -0.269132 -0.924735 0.269132
vn 0.000000 -1.000000 0.000000
vn -0.269132 -0.924735 0.269132
vn 0.000000 -0.924735 0.380611
vn 0.000000 -0.709230 0.704977
vn -0.498494 -0.709230 0.498494
vn -0.498494 -0.709230 0.498494
vn 0.000000 -0.709230 0.704977
vn 0.000000 -0.384551 0.923104
vn -0.652733 -0.384551 0.652733
vn -0.652733 -0.384551 0.652733
vn 0.000000 -0.384551 0.923104
vn 0.000000 0.000000 1.000000
vn -0.707107 0.000000 0.707107
vn -0.707107 0.000000 0.707107
vn 0.000000 0.000000 1.000000
vn 0.000000 0.384551 0.923104
vn -0.652733 0.384551 0.652733
vn -0.652733 0.384551 0.652733
vn 0.000000 0.384551 0.923104
vn 0.000000 0.709230 0.704977
vn -0.498494 0.709230 0.498494
vn -0.498494 0.709230 0.498494
vn 0.000000 0.709230 0.704977
vn 0.000000 0.924735 0.380611
vn -0.269132 0.924735 0.269132
vn -0.269132 0.924735 0.269132
vn 0.000000 0.924735 0.380611
vn 0.000000 1.000000 -0.000000
vn 0.269132 -0.924735 0.269132
vn 0.000000 -0.924735 0.380611
vn 0.000000 -1.000000 0.000000
vn 0.000000 -0.924735 0.380611
vn 0.269132 -0.924735 0.269132
vn 0.498494 -0.709230 0.498494
vn 0.000000 -0.709230 0.704977
vn 0.000000 -0.709230 0.704977
vn 0.498494 -0.709230 0.498494
vn 0.652733 -0.384551 0.652733
vn 0.000000 -0.384551 0.923104
vn 0.000000 -0.384551 0.923104
vn 0.652733 -0.384551 0.652733
vn 0.707107 0.000000 0.707107
vn 0.000000 0.000000 1.000000
vn 0.000000 0.000000 1.000000
vn 0.707107 0.000000 0.707107
vn 0.652733 0.384551 0.652733
vn 0.000000 0.384551 0.923104
vn 0.000000 0.384551 0.923104
vn 0.652733 0.384551 0.652733
vn 0.498494 0.709230 0.498494
vn 0.000000 0.709230 0.704977
vn 0.000000 0.709230 0.704977
vn 0.498494 0.709230 0.498494
vn 0.269132 0.924735 0.269132
vn 0.000000 0.924735 0.380611
vn 0.000000 0.924735 0.380611
vn 0.269132 0.924735 0.269132
vn 0.000000 1.000000 -0.000000
vn 0.380611 -0.924735 0.000000
vn 0.269132 -0.924735 0.269132
vn 0.000000 -1.000000 0.000000
vn 0.269132 -0.924735 0.269132
vn 0.380611 -0.924735 0.000000
vn 0.704977 -0.709230 0.000000
vn 0.498494 -0.709230 0.498494
vn 0.498494 -0.709230 0.498494
vn 0.704977 -0.709230 0.000000
vn 0.923104 -0.384551 0.000000
vn 0.652733 -0.384551 0.652733
vn 0.652733 -0.384551 0.652733
vn 0.923104 -0.384551 0.000000
vn 1.000000 0.000000 0.000000
vn 0.707107 0.000000 0.707107
vn 0.707107 0.000000 0.707107
vn 1.000000 0.000000 0.000000
vn 0.923104 0.384551 0.000000
vn 0.652733 0.384551 0.652733
vn 0.652733 0.384551 0.652733
vn 0.923104 0.384551 0.000000
vn 0.704977 0.709230 0.000000
vn 0.498494 0.709230 0.498494
vn 0.498494 0.709230 0.498494
vn 0.704977 0.709230 0.000000
vn 0.380611 0.924735 0.000000
vn 0.269132 0.924735 0.269132
vn 0.269132 0.924735 0.269132
vn 0.380611 0.924735 0.000000
vn 0.000000 1.000000 -0.000000
vn 0.269132 -0.924735 -0.269132
vn 0.380611 -0.924735 0.000000
vn 0.000000 -1.000000 0.000000
vn 0.380611 -0.924735 0.000000
vn 0.269132 -0.924735 -0.269132
vn 0.498494 -0.709230 -0.498494
vn 0.704977 -0.709230 0.000000
vn 0.704977 -0.709230 0.000000
vn 0.498494 -0.709230 -0.498494
vn 0.652733 -0.384551 -0.652733
vn 0.923104 -0.384551 0.000000
vn 0.923104 -0.384551 0.000000
vn 0.652733 -0.384551 -0.652733
vn 0.707107 0.000000 -0.707107
vn 1.000000 0.000000 0.000000
vn 1.000000 0.000000 0.000000
vn 0.707107 0.000000 -0.707107
vn 0.652733 0.384551 -0.652733
vn 0.923104 0.384551 0.000000
vn 0.923104 0.384551 0.000000
vn 0.652733 0.384551 -0.652733
vn 0.498494 0.709230 -0.498494
vn 0.704977 0.709230 0.000000
vn 0.704977 0.709230 0.000000
vn 0.498494 0.709230 -0.498494
vn 0.269132 0.924735 -0.269132
vn 0.380611 0.924735 0.000000
vn 0.380611 0.924735 0.000000
vn 0.269132 0.924735 -0.269132
vn 0.000000 1.000000 -0.000000
vn 0.000000 -0.924735 -0.380611
vn 0.269132 -0.924735 -0.269132
vn 0.000000 -1.000000 0.000000
vn 0.269132 -0.924735 -0.269132
vn 0.000000 -0.924735 -0.380611
vn 0.000000 -0.709230 -0.704977
vn 0.498494 -0.709230 -0.498494
vn 0.498494 -0.709230 -0.498494
vn 0.000000 -0.709230 -0.704977
vn 0.000000 -0.384551 -0.923104
vn 0.652733 -0.384551 -0.652733
vn 0.652733 -0.384551 -0.652733
vn 0.000000 -0.384551 -0.923104
vn 0.000000 0.000000 -1.000000
vn 0.707107 0.000000 -0.707107
vn 0.707107 0.000000 -0.707107
vn 0.000000 0.000000 -1.000000
vn 0.000000 0.384551 -0.923104
vn 0.652733 0.384551 -0.652733
vn 0.652733 0.384551 -0.652733
vn 0.000000 0.384551 -0.923104
vn 0.000000 0.709230 -0.704977
vn 0.498494 0.709230 -0.498494
vn 0.498494 0.709230 -0.498494
vn 0.000000 0.709230 -0.704977
vn 0.000000 0.924735 -0.380611
vn 0.269132 0.924735 -0.269132
vn 0.269132 0.924735 -0.269132
vn 0.000000 0.924735 -0.380611
vn 0.000000 1.000000 -0.000000
vn -0.269132 -0.924735 -0.269132
vn 0.000000 -0.924735 -0.380611
vn 0.000000 -1.000000 0.000000
vn 0.000000 -0.924735 -0.380611
vn -0.269132 -0.924735 -0.269132
vn -0.498494 -0.709230 -0.498494
vn 0.000000 -0.709230 -0.704977
vn 0.000000 -0.709230 -0.704977
vn -0.498494 -0.709230 -0.498494
vn -0.652733 -0.384551 -0.652733
vn 0.000000 -0.384551 -0.923104
vn 0.000000 -0.384551 -0.923104
vn -0.652733 -0.384551 -0.652733
vn -0.707107 0.000000 -0.707107
vn 0.000000 0.000000 -1.000000
vn 0.000000 0.000000 -1.000000
vn -0.707107 0.000000 -0.707107
vn -0.652733 0.384551 -0.652733
vn 0.000000 0.384551 -0.923104
vn 0.000000 0.384551 -0.923104
vn -0.652733 0.384551 -0.652733
vn -0.498494 0.709230 -0.498494
vn 0.000000 0.709230 -0.704977
vn 0.000000 0.709230 -0.704977
vn -0.498494 0.709230 -0.498494
vn -0.269132 0.924735 -0.269132
vn 0.000000 0.924735 -0.380611
vn 0.000000 0.924735 -0.380611
vn -0.269132 0.924735 -0.269132
vn 0.000000 1.000000 -0.000000
vn -0.380611 -0.924735 0.000000
vn -0.269132 -0.924735 -0.269132
vn 0.000000 -1.000000 0.000000
vn -0.269132 -0.924735 -0.269132
vn -0.380611 -0.924735 0.000000
vn -0.704977 -0.709230 0.000000
vn -0.498494 -0.709230 -0.498494
vn -0.498494 -0.709230 -0.498494
vn -0.704977 -0.709230 0.000000
vn -0.923104 -0.384551 0.000000
vn -0.652733 -0.384551 -0.652733
vn -0.652733 -0.384551 -0.652733
vn -0.923104 -0.384551 0.000000
vn -1.000000 0.000000 0.000000
vn -0.707107 0.000000 -0.707107
vn -0.707107 0.000000 -0.707107
vn -1.000000 0.000000 0.000000
vn -0.923104 0.384551 0.000000
vn -0.652733 0.384551 -0.652733
vn -0.652733 0.384551 -0.652733
vn -0.923104 0.384551 0.000000
vn -0.704977 0.709230 0.000000
vn -0.498494 0.709230 -0.498494
vn -0.498494 0.709230 -0.498494
vn -0.704977 0.709230 0.000000
vn -0.380611 0.924735 0.000000
vn -0.269132 0.924735 -0.269132
vn -0.269132 0.924735 -0.269132
vn -0.380611 0.924735 0.000000
vn 0.000000 1.000000 -0.000000
#end 240 vertex normals

#begin 240 texture vertices
vt 0.375000 0.125000 0.000000
vt 0.250000 0.125000 0.000000
vt 0.000000 0.000000 0.000000
vt 0.250000 0.125000 0.000000
vt 0.375000 0.125000 0.000000
vt 0.375000 0.250000 0.000000
vt 0.250000 0.250000 0.000000
vt 0.250000 0.250000 0.000000
vt 0.375000 0.250000 0.000000
vt 0.375000 0.375000 0.000000
vt 0.250000 0.375000 0.000000
vt 0.250000 0.375000 0.000000
vt 0.375000 0.375000 0.000000
vt 0.375000 0.500000 0.000000
vt 0.250000 0.500000 0.000000
vt 0.250000 0.500000 0.000000
vt 0.375000 0.500000 0.000000
vt 0.375000 0.625000 0.000000
vt 0.250000 0.625000 0.000000
vt 0.250000 0.625000 0.000000
vt 0.375000 0.625000 0.000000
vt 0.375000 0.750000 0.000000
vt 0.250000 0.750000 0.000000
vt 0.250000 0.750000 0.000000
vt 0.375000 0.750000 0.000000
vt 0.375000 0.875000 0.000000
vt 0.250000 0.875000 0.000000
vt 0.250000 0.875000 0.000000
vt 0.375000 0.875000 0.000000
vt 0.000000 1.000000 0.000000
vt 0.500000 0.125000 0.000000
vt 0.375000 0.125000 0.000000
vt 0.000000 0.000000 0.000000
vt 0.375000 0.125000 0.000000
vt 0.500000 0.125000 0.000000
vt 0.500000 0.250000 0.000000
vt 0.375000 0.250000 0.000000
vt 0.375000 0.250000 0.000000
vt 0.500000 0.250000 0.000000
vt 0.500000 0.375000 0.000000
vt 0.375000 0.375000 0.000000
vt 0.375000 0.375000 0.000000
vt 0.500000 0.375000 0.000000
vt 0.500000 0.500000 0.000000
vt 0.375000 0.500000 0.000000
vt 0.375000 0.500000 0.000000
vt 0.500000 0.500000 0.000000
vt 0.500000 0.625000 0.000000
vt 0.375000 0.625000 0.000000
vt 0.375000 0.625000 0.000000
vt 0.500000 0.625000 0.000000
vt 0.500000 0.750000 0.000000
vt 0.375000 0.750000 0.000000
vt 0.375000 0.750000 0.000000
vt 0.500000 0.750000 0.000000
vt 0.500000 0.875000 0.000000
vt 0.375000 0.875000 0.000000
vt 0.375000 0.875000 0.000000
vt 0.500000 0.875000 0.000000
vt 0.000000 1.000000 0.000000
vt 0.625000 0.125000 0.000000
vt 0.500000 0.125000 0.000000
vt 1.000000 0.000000 0.000000
vt 0.500000 0.125000 0.000000
vt 0.625000 0.125000 0.000000
vt 0.625000 0.250000 0.000000
vt 0.500000 0.250000 0.000000
vt 0.500000 0.250000 0.000000
vt 0.625000 0.250000 0.000000
vt 0.625000 0.375000 0.000000
vt 0.500000 0.375000 0.000000
vt 0.500000 0.375000 0.000000
vt 0.625000 0.375000 0.000000
vt 0.625000 0.500000 0.000000
vt 0.500000 0.500000 0.000000
vt 0.500000 0.500000 0.000000
vt 0.625000 0.500000 0.000000
vt 0.625000 0.625000 0.000000
vt 0.500000 0.625000 0.000000
vt 0.500000 0.625000 0.000000
vt 0.625000 0.625000 0.000000
vt 0.625000 0.750000 0.000000
vt 0.500000 0.750000 0.000000
vt 0.500000 0.750000 0.000000
vt 0.625000 0.750000 0.000000
vt 0.625000 0.875000 0.000000
vt 0.500000 0.875000 0.000000
vt 0.500000 0.875000 0.000000
vt 0.625000 0.875000 0.000000
vt 1.000000 1.000000 0.000000
vt 0.750000 0.125000 0.000000
vt 0.625000 0.125000 0.000000
vt 1.000000 0.000000 0.000000
vt 0.625000 0.125000 0.000000
vt 0.750000 0.125000 0.000000
vt 0.750000 0.250000 0.000000
vt 0.625000 0.250000 0.000000
vt 0.625000 0.250000 0.000000
vt 0.750000 0.250000 0.000000
vt 0.750000 0.375000 0.000000
vt 0.625000 0.375000 0.000000
vt 0.625000 0.375000 0.000000
vt 0.750000 0.375000 0.000000
vt 0.750000 0.500000 0.000000
vt 0.625000 0.500000 0.000000
vt 0.625000 0.500000 0.000000
vt 0.750000 0.500000 0.000000
vt 0.750000 0.625000 0.000000
vt 0.625000 0.625000 0.000000
vt 0.625000 0.625000 0.000000
vt 0.750000 0.625000 0.000000
vt 0.750000 0.750000 0.000000
vt 0.625000 0.750000 0.000000
vt 0.625000 0.750000 0.000000
vt 0.750000 0.750000 0.000000
vt 0.750000 0.875000 0.000000
vt 0.625000 0.875000 0.000000
vt 0.625000 0.875000 0.000000
vt 0.750000 0.875000 0.000000
vt 1.000000 1.000000 0.000000
vt 0.875000 0.125000 0.000000
vt 0.750000 0.125000 0.000000
vt 1.000000 0.000000 0.000000
vt 0.750000 0.125000 0.000000
vt 0.875000 0.125000 0.000000
vt 0.875000 0.250000 0.000000
vt 0.750000 0.250000 0.000000
vt 0.750000 0.250000 0.000000
vt 0.875000 0.250000 0.000000
vt 0.875000 0.375000 0.000000
vt 0.750000 0.375000 0.000000
vt 0.750000 0.375000 0.000000
vt 0.875000 0.375000 0.000000
vt 0.875000 0.500000 0.000000
vt 0.750000 0.500000 0.000000
vt 0.750000 0.500000 0.000000
vt 0.875000 0.500000 0.000000
vt 0.875000 0.625000 0.000000
vt 0.750000 0.625000 0.000000
vt 0.750000 0.625000 0.000000
vt 0.875000 0.625000 0.000000
vt 0.875000 0.750000 0.000000
vt 0.750000 0.750000 0.000000
vt 0.750000 0.750000 0.000000
vt 0.875000 0.750000 0.000000
vt 0.875000 0.875000 0.000000
vt 0.750000 0.875000 0.000000
vt 0.750000 0.875000 0.000000
vt 0.875000 0.875000 0.000000
vt 1.000000 1.000000 0.000000
vt 1.000000 0.125000 0.000000
vt 0.875000 0.125000 0.000000
vt 1.000000 0.000000 0.000000
vt 0.875000 0.125000 0.000000
vt 1.000000 0.125000 0.000000
vt 1.000000 0.250000 0.000000
vt 0.875000 0.250000 0.000000
vt 0.875000 0.250000 0.000000
vt 1.000000 0.250000 0.000000
vt 1.000000 0.375000 0.000000
vt 0.875000 0.375000 0.000000
vt 0.875000 0.375000 0.000000
vt 1.000000 0.375000 0.000000
vt 1.000000 0.500000 0.000000
vt 0.875000 0.500000 0.000000
vt 0.875000 0.500000 0.000000
vt 1.000000 0.500000 0.000000
vt 1.000000 0.625000 0.000000
vt 0.875000 0.625000 0.000000
vt 0.875000 0.625000 0.000000
vt 1.000000 0.625000 0.000000
vt 1.000000 0.750000 0.000000
vt 0.875000 0.750000 0.000000
vt 0.875000 0.750000 0.000000
vt 1.000000 0.750000 0.000000
vt 1.000000 0.875000 0.000000
vt 0.875000 0.875000 0.000000
vt 0.875000 0.875000 0.000000
vt 1.000000 0.875000 0.000000
vt 1.000000 1.000000 0.000000
vt 0.125000 0.125000 0.000000
vt 0.000000 0.125000 0.000000
vt 0.000000 0.000000 0.000000
vt 0.000000 0.125000 0.000000
vt 0.125000 0.125000 0.000000
vt 0.125000 0.250000 0.000000
vt 0.000000 0.250000 0.000000
vt 0.000000 0.250000 0.000000
vt 0.125000 0.250000 0.000000
vt 0.125000 0.375000 0.000000
vt 0.000000 0.375000 0.000000
vt 0.000000 0.375000 0.000000
vt 0.125000 0.375000 0.000000
vt 0.125000 0.500000 0.000000
vt 0.000000 0.500000 0.000000
vt 0.000000 0.500000 0.000000
vt 0.125000 0.500000 0.000000
vt 0.125000 0.625000 0.000000
vt 0.000000 0.625000 0.000000
vt 0.000000 0.625000 0.000000
vt 0.125000 0.625000 0.000000
vt 0.125000 0.750000 0.000000
vt 0.000000 0.750000 0.000000
vt 0.000000 0.750000 0.000000
vt 0.125000 0.750000 0.000000
vt 0.125000 0.875000 0.000000
vt 0.000000 0.875000 0.000000
vt 0.000000 0.875000 0.000000
vt 0.125000 0.875000 0.000000
vt 0.000000 1.000000 0.000000
vt 0.250000 0.125000 0.000000
vt 0.125000 0.125000 0.000000
vt 0.000000 0.000000 0.000000
vt 0.125000 0.125000 0.000000
vt 0.250000 0.125000 0.000000
vt 0.250000 0.250000 0.000000
vt 0.125000 0.250000 0.000000
vt 0.125000 0.250000 0.000000
vt 0.250000 0.250000 0.000000
vt 0.250000 0.375000 0.000000
vt 0.125000 0.375000 0.000000
vt 0.125000 0.375000 0.000000
vt 0.250000 0.375000 0.000000
vt 0.250000 0.500000 0.000000
vt 0.125000 0.500000 0.000000
vt 0.125000 0.500000 0.000000
vt 0.250000 0.500000 0.000000
vt 0.250000 0.625000 0.000000
vt 0.125000 0.625000 0.000000
vt 0.125000 0.625000 0.000000
vt 0.250000 0.625000 0.000000
vt 0.250000 0.750000 0.000000
vt 0.125000 0.750000 0.000000
vt 0.125000 0.750000 0.000000
vt 0.250000 0.750000 0.000000
vt 0.250000 0.875000 0.000000
vt 0.125000 0.875000 0.000000
vt 0.125000 0.875000 0.000000
vt 0.250000 0.875000 0.000000
vt 0.000000 1.000000 0.000000
#end 240 texture vertices

#begin 64 faces
usemtl material2
f 18/25/25 11/26/26 9/27/27 
usemtl material2
f 11/28/28 18/29/29 19/30/30 12/31/31 
usemtl material2
f 12/32/32 19/33/33 20/34/34 13/35/35 
usemtl material2
f 13/36/36 20/37/37 21/38/38 14/39/39 
usemtl material2
f 14/40/40 21/41/41 22/42/42 15/43/43 
usemtl material2
f 15/44/44 22/45/45 23/46/46 16/47/47 
usemtl material2
f 16/48/48 23/49/49 24/50/50 17/51/51 
usemtl material2
f 17/52/52 24/53/53 10/54/54 
usemtl material2
f 25/55/55 18/56/56 9/57/57 
usemtl material2
f 18/58/58 25/59/59 26/60/60 19/61/61 
usemtl material2
f 19/62/62 26/63/63 27/64/64 20/65/65 
usemtl material2
f 20/66/66 27/67/67 28/68/68 21/69/69 
usemtl material2
f 21/70/70 28/71/71 29/72/72 22/73/73 
usemtl material2
f 22/74/74 29/75/75 30/76/76 23/77/77 
usemtl material2
f 23/78/78 30/79/79 31/80/80 24/81/81 
usemtl material2
f 24/82/82 31/83/83 10/84/84 
usemtl material2
f 32/85/85 25/86/86 9/87/87 
usemtl material2
f 25/88/88 32/89/89 33/90/90 26/91/91 
usemtl material2
f 26/92/92 33/93/93 34/94/94 27/95/95 
usemtl material2
f 27/96/96 34/97/97 35/98/98 28/99/99 
usemtl material2
f 28/100/100 35/101/101 36/102/102 29/103/103 
usemtl material2
f 29/104/104 36/105/105 37/106/106 30/107/107 
usemtl material2
f 30/108/108 37/109/109 38/110/110 31/111/111 
usemtl material2
f 31/112/112 38/113/113 10/114/114 
usemtl material2
f 39/115/115 32/116/116 9/117/117 
usemtl material2
f 32/118/118 39/119/119 40/120/120 33/121/121 
usemtl material2
f 33/122/122 40/123/123 41/124/124 34/125/125 
usemtl material2
f 34/126/126 41/127/127 42/128/128 35/129/129 
usemtl material2
f 35/130/130 42/131/131 43/132/132 36/133/133 
usemtl material2
f 36/134/134 43/135/135 44/136/136 37/137/137 
usemtl material2
f 37/138/138 44/139/139 45/140/140 38/141/141 
usemtl material2
f 38/142/142 45/143/143 10/144/144 
usemtl material2
f 46/145/145 39/146/146 9/147/147 
usemtl material2
f 39/148/148 46/149/149 47/150/150 40/151/151 
usemtl material2
f 40/152/152 47/153/153 48/154/154 41/155/155 
usemtl material2
f 41/156/156 48/157/157 49/158/158 42/159/159 
usemtl material2
f 42/160/160 49/161/161 50/162/162 43/163/163 
usemtl material2
f 43/164/164 50/165/165 51/166/166 44/167/167 
usemtl material2
f 44/168/168 51/169/169 52/170/170 45/171/171 
usemtl material2
f 45/172/172 52/173/173 10/174/174 
usemtl material2
f 53/175/175 46/176/176 9/177/177 
usemtl material2
f 46/178/178 53/179/179 54/180/180 47/181/181 
usemtl material2
f 47/182/182 54/183/183 55/184/184 48/185/185 
usemtl material2
f 48/186/186 55/187/187 56/188/188 49/189/189 
usemtl material2
f 49/190/190 56/191/191 57/192/192 50/193/193 
usemtl material2
f 50/194/194 57/195/195 58/196/196 51/197/197 
usemtl material2
f 51/198/198 58/199/199 59/200/200 52/201/201 
usemtl material2
f 52/202/202 59/203/203 10/204/204 
usemtl material2
f 60/205/205 53/206/206 9/207/207 
usemtl material2
f 53/208/208 60/209/209 61/210/210 54/211/211 
usemtl material2
f 54/212/212 61/213/213 62/214/214 55/215/215 
usemtl material2
f 55/216/216 62/217/217 63/218/218 56/219/219 
usemtl material2
f 56/220/220 63/221/221 64/222/222 57/223/223 
usemtl material2
f 57/224/224 64/225/225 65/226/226 58/227/227 
usemtl material2
f 58/228/228 65/229/229 66/230/230 59/231/231 
usemtl material2
f 59/232/232 66/233/233 10/234/234 
usemtl material2
f 11/235/235 60/236/236 9/237/237 
usemtl material2
f 60/238/238 11/239/239 12/240/240 61/241/241 
usemtl material2
f 61/242/242 12/243/243 13/244/244 62/245/245 
usemtl material2
f 62/246/246 13/247/247 14/248/248 63/249/249 
usemtl material2
f 63/250/250 14/251/251 15/252/252 64/253/253 
usemtl material2
f 64/254/254 15/255/255 16/256/256 65/257/257 
usemtl material2
f 65/258/258 16/259/259 17/260/260 66/261/261 
usemtl material2
f 66/262/262 17/263/263 10/264/264 
#end 64 faces
